<?xml version="1.0" encoding="UTF-8"?>
<svg id="Layer_1" xmlns="http://www.w3.org/2000/svg" version="1.1" viewBox="0 0 792 268.2">
  <!-- Generator: Adobe Illustrator 30.4.0, SVG Export Plug-In . SVG Version: 2.1.4 Build 226)  -->
  <defs>
    <style>
      .st0 {
        fill: none;
      }

      .st1 {
        fill: #92278f;
      }
    </style>
  </defs>
  <rect class="st0" width="792" height="268.2"/>
  <g>
    <path class="st1" d="M706.4,190.5c-3.6,1.6-7.6,1.4-11-.4-3.4-1.8-5.3-5-5.6-8.7-.5-6.9,4.8-12.4,11.7-12.3,6.6,0,11.6,5.2,11.4,11.8-.2,4.2-2.5,7.9-6.5,9.6Z"/>
    <g>
      <path d="M79.2,109.8h15.9v79.2h-15.9v-79.2Z"/>
      <path d="M187.5,140.2v48.8h-15.9v-46c0-13.1-7.8-20.9-20.4-20.7-11.9,0-20.6,8.7-20.7,18.5v48.2h-15.9v-79.2h15v10.1c5.4-6.9,14.4-11.9,26.1-11.9,19.8,0,31.9,12.8,31.9,32.2Z"/>
      <path d="M210.8,161.4v-37.9h-14.1v-13.7h7.7c5.1,0,7.4-2.6,7.4-7.7v-12.8h15.5v20.4h22.1v13.7h-22.7v36.2c0,9.9,5.3,15.3,14.7,15.3h8.9v14h-12c-17.9,0-27.3-10.7-27.3-27.6Z"/>
      <path d="M296.5,176.7c11.9,0,18.5-4.4,22.1-12.6l13.1,8.3c-6,10.5-16.7,18.5-35.6,18.5s-41.5-17.7-41.5-41.3,17.9-41.5,40.3-41.5,39.7,19.2,39.7,39.7-.1,5.6-.3,7.1h-63.8c2.4,13.5,12.8,21.9,26.1,21.9ZM318.9,142.6c-2.1-13.4-11.3-21.6-23.4-21.6s-22.5,8-24.9,21.6h48.4Z"/>
      <path d="M348.9,79.2h15.9v109.8h-15.9v-109.8Z"/>
      <path d="M384.2,79.2h15.9v109.8h-15.9v-109.8Z"/>
      <path d="M419.5,109.8h15.9v79.2h-15.9v-79.2Z"/>
      <path d="M454.8,79.2h15.9v109.8h-15.9v-109.8Z"/>
      <path d="M567.5,109.8v79.2h-14.7v-12.9c-6,9.2-15.6,14.7-27.9,14.7-22.7,0-39.1-17.7-39.1-41.5s16.5-40.3,39.1-40.3,21.9,5.1,27.9,14.1v-13.4h14.7ZM552.2,149.3c0-15.9-10.2-27.2-25.4-27.2s-25.2,11.7-25.2,27.2,10.7,27.3,25.2,27.3,25.4-11.3,25.4-27.3Z"/>
      <path d="M694.1,109.8l-21.2,79.2h-18.8l-17.6-61.7-17.3,61.7h-18.8l-21.5-79.2h16.4l15.2,63.8,17.1-63.8h17.9l17.1,63.3,15-63.3h16.4Z"/>
    </g>
    <path class="st1" d="M75.6,85c0-6.6,5.1-11.4,11.6-11.4s11.6,4.8,11.6,11.4-5.1,11.1-11.6,11.1-11.6-4.5-11.6-11.1Z"/>
    <path class="st1" d="M415.9,85c0-6.6,5.1-11.4,11.6-11.4s11.6,4.8,11.6,11.4-5.1,11.1-11.6,11.1-11.6-4.5-11.6-11.1Z"/>
  </g>
</svg>