<?xml version="1.0" encoding="UTF-8"?>
<svg id="Layer_1" xmlns="http://www.w3.org/2000/svg" version="1.1" viewBox="0 0 682.9 219.5">
  <!-- Generator: Adobe Illustrator 30.2.1, SVG Export Plug-In . SVG Version: 2.1.1 Build 1)  -->
  <defs>
    <style>
      .st0 {
        fill: #007dba;
      }

      .st1 {
        fill: #03499a;
      }
    </style>
  </defs>
  <g>
    <path class="st0" d="M129.5,147.3h-59.4c-2.5,0-4.5-2-4.5-4.5v-64.8c0-1.2-.5-2.3-1.3-3.2l-12.2-12.2c-2.8-2.8-7.6-.8-7.6,3.2v79.6c0,1.2.5,2.3,1.3,3.2l18.5,18.5c.8.8,2,1.3,3.2,1.3h74.2c4,0,6-4.8,3.2-7.6l-12.2-12.2c-.8-.8-2-1.3-3.2-1.3Z"/>
    <path class="st1" d="M156.4,114.4h0v-40.4c0-1.2-.5-2.3-1.3-3.2l-18.5-18.5c-.8-.8-2-1.3-3.2-1.3H59.3c-4,0-6,4.8-3.2,7.6l12.2,12.2c.8.8,2,1.3,3.2,1.3h59.4c2.5,0,4.5,2,4.5,4.5v16.6h-51c-4,0-6,4.8-3.2,7.6l12.2,12.2c.8.8,2,1.3,3.2,1.3h38.8v27.1c0,1.2.5,2.3,1.3,3.2l12.2,12.2c2.8,2.8,7.6.8,7.6-3.2v-39.2h0Z"/>
  </g>
  <g>
    <path d="M190.4,135.3h5c1.1,0,1.9-.9,1.9-1.9v-52.8c0-1.1-.9-1.9-1.9-1.9h-5c-1.1,0-1.9-.9-1.9-1.9v-1.9c0-1.1.9-1.9,1.9-1.9h20.8c1.1,0,1.9.9,1.9,1.9v1.9c0,1.1-.9,1.9-1.9,1.9h-5c-1.1,0-1.9.9-1.9,1.9v52.7c0,1.1.9,1.9,1.9,1.9h23.4c1.1,0,1.9-.9,1.9-1.9v-7.5c0-1.1.9-1.9,1.9-1.9h2.3c1.1,0,1.9.9,1.9,1.9v13.3c0,1.1-.9,1.9-1.9,1.9h-45.3c-1.1,0-1.9-.9-1.9-1.9v-1.7c0-1.1.9-1.9,1.9-1.9Z"/>
    <path d="M269.2,91c13.5,0,20.5,10.4,20.5,22.5s0,.9,0,1.4c0,1-.9,1.8-1.9,1.8h-34.7c-.6,0-1,.5-1,1.1.7,11.8,9.1,18.5,18.9,18.5s10.9-2.8,13.2-4.5,2.2-.4,2.8.6l1,1.6c.5.9.3,2-.5,2.6-2.5,1.9-8.5,5.7-16.7,5.7-14.5,0-25.5-10.5-25.5-25.5s10.9-25.6,24-25.6ZM281.8,111.7c.5,0,1-.5.9-1-.7-9.6-6.8-14.2-13.7-14.2s-14.7,4.9-16.6,14.1.3,1.1.9,1.1h28.5Z"/>
    <path d="M319,155.4c9.5,0,17.1-4.5,17.1-15.4v-4.8c0-1.8.3-3.5.3-3.5h-.2c-2.9,5.4-8,8.9-15.5,8.9-13.1,0-21.7-10.4-21.7-25s8-24.6,21.1-24.6,13.8,2.6,16.4,8.6h.2s-.2-.7-.2-2.1c0-3.6,1.5-5.3,5.6-5.3h6.8c1.1,0,1.9.9,1.9,1.9v1.6c0,1.1-.9,1.9-1.9,1.9h-2.1c-2.2,0-4.1,1.8-4.1,4.1v38.1c0,15.5-11.4,21.5-23.5,21.5s-9.7-1.1-14.1-3c-1-.4-1.5-1.6-1-2.6l.9-1.8c.5-1,1.6-1.4,2.5-.9,2.3,1,6.6,2.6,11.5,2.6ZM336.1,115.6c0-14.3-6.8-18.7-15.4-18.7s-15,7-15,18.6,6.3,19.2,15.9,19.2,14.5-4.8,14.5-19.1Z"/>
    <path d="M386.6,111h3.2v-2c0-9.1-4.9-12.3-11.7-12.3s-10.3,2.3-12.6,3.7c-.9.6-2.1.3-2.6-.6l-1.1-1.7c-.6-.9-.3-2.1.6-2.7,2.6-1.6,8.2-4.4,16.1-4.4,11.8,0,17.9,6.3,17.9,18.3v24c0,1.5.8,2.1,2.1,2.1h3.4c1.1,0,1.9.9,1.9,1.9v1.6c0,1.1-.9,1.9-1.9,1.9h-6c-4.2,0-5.8-1.8-5.8-5.3v-.9c0-2.3.3-3.8.3-3.8h-.2s-4.2,11.2-16.7,11.2-16.3-4.6-16.3-14.5c0-15.8,21.1-16.5,29.4-16.5ZM374.4,136.6c9.8,0,15.3-9.8,15.3-18.3v-2.3h-2.8c-4,0-23-.4-23,10.9s3.7,9.8,10.5,9.8Z"/>
    <path d="M412.7,78.2h-4.8c-1.1,0-1.9-.9-1.9-1.9v-1.6c0-1.1.9-1.9,1.9-1.9h11.3c1.1,0,1.9.9,1.9,1.9v53.5c0,4,1.1,7.3,5.5,7.3s.5,0,.7,0c1.1,0,2,.8,2,1.9v1.8c0,1-.8,1.9-1.8,1.9s-1.3,0-2,0c-6.4,0-11.1-3.2-11.1-12.5v-48.6c0-1.1-.9-1.9-1.9-1.9Z"/>
    <path d="M444.7,73h30.3c1.1,0,1.9.9,1.9,1.9h0c0,1.1-.9,1.9-1.9,1.9h-26.2c-1.1,0-1.9.9-1.9,1.9v24.4c0,1.1.9,1.9,1.9,1.9h22.1c1.1,0,1.9.9,1.9,1.9h0c0,1.1-.9,1.9-1.9,1.9h-22.1c-1.1,0-1.9.9-1.9,1.9v27.9c0,1.1-.9,1.9-1.9,1.9h-.3c-1.1,0-1.9-.9-1.9-1.9v-64c0-1.1.9-1.9,1.9-1.9Z"/>
    <path d="M491.5,73h.2c1.1,0,1.9.9,1.9,1.9v54.9c0,6.8,3.5,7.6,5.5,7.6s1.7.3,1.7,1.2v1.4c0,.6-.5,1.1-1.1,1.2s-.4,0-.6,0c-2.8,0-9.5-1.1-9.5-10.2v-56.1c0-1.1.9-1.9,1.9-1.9Z"/>
    <path d="M533.9,91.2c13.9,0,25.1,11,25.1,25.1s-11.2,25.7-25.1,25.7-25.1-11.2-25.1-25.7,11.2-25.1,25.1-25.1ZM533.9,138.1c11.5,0,20.8-9.4,20.8-21.7s-9.3-21.1-20.8-21.1-20.8,9.1-20.8,21.1,9.3,21.7,20.8,21.7Z"/>
    <path d="M568.7,92.4h.2c.8,0,1.6.5,1.8,1.3l12.7,36.7c.8,2.3,1.6,5.2,1.6,5.2h.2s.9-2.9,1.6-5.2l12.8-36.5c.3-.8,1-1.3,1.8-1.3h1.8c.8,0,1.6.5,1.8,1.3l12.8,36.5c.8,2.3,1.6,5.2,1.6,5.2h.2s.8-2.8,1.6-5.2l12.7-36.7c.3-.8,1-1.3,1.8-1.3h.2c1.3,0,2.3,1.3,1.8,2.6l-15.7,44.6c-.3.8-1,1.3-1.8,1.3h-1.6c-.8,0-1.5-.5-1.8-1.3l-13-36.3c-.9-2.3-1.6-5.2-1.6-5.2h-.2s-.8,2.9-1.6,5.2l-12.9,36.3c-.3.8-1,1.3-1.8,1.3h-1.6c-.8,0-1.6-.5-1.8-1.3l-15.7-44.6c-.4-1.3.5-2.6,1.8-2.6Z"/>
  </g>
</svg>